<svg width="136" height="27" viewBox="0 0 136 27" fill="none" xmlns="http://www.w3.org/2000/svg">
<path fill-rule="evenodd" clip-rule="evenodd" d="M14.2627 0.754568L4.23064 4.04758C2.92738 4.47537 2.48704 4.72851 2.05342 5.09341C1.61979 5.45831 1.29926 5.90006 1.08671 6.42569C0.874167 6.95132 0.769874 7.44877 0.766555 8.82167L0.730337 23.8C0.728723 24.4674 0.797568 24.7097 0.927354 24.954C1.05714 25.1983 1.248 25.3903 1.49146 25.5214C1.73493 25.6525 1.97657 25.7226 2.64339 25.7242L31.4692 25.7939C32.136 25.7955 32.378 25.7266 32.6221 25.5967C32.8662 25.4668 33.058 25.2757 33.1889 25.032C33.3199 24.7883 33.3899 24.5464 33.3915 23.8789L33.4278 8.86772C33.4311 7.50407 33.3312 7.00966 33.1245 6.48605C32.9178 5.96245 32.6041 5.52096 32.1778 5.15368C31.7516 4.7864 31.3178 4.52962 30.0299 4.08518L20.515 0.801825C19.1745 0.339234 18.7123 0.218778 18.1777 0.137789C17.6431 0.0567992 17.1455 0.0530387 16.6098 0.125938C16.074 0.198838 15.6101 0.312293 14.2627 0.754568ZM3.22495 23.2299L11.4937 23.2499L11.5242 10.6199C11.5255 10.0676 11.9743 9.62095 12.5266 9.62228L21.664 9.64438C22.2162 9.64571 22.6629 10.0945 22.6615 10.6468L22.631 23.2768L30.8997 23.2968L30.9346 8.86169C30.9369 7.89441 30.9024 7.64822 30.8057 7.40317C30.7475 7.25572 30.6714 7.14862 30.5514 7.04519C30.3519 6.8733 30.1309 6.75986 29.2173 6.44461L19.7024 3.16125C18.563 2.76808 18.1918 2.66404 17.8046 2.60538C17.5048 2.55997 17.246 2.55801 16.9456 2.59889C16.5575 2.65169 16.1848 2.7501 15.0396 3.12601L5.00752 6.41902C4.0842 6.7221 3.86064 6.83304 3.6578 7.00373C3.5356 7.10656 3.4577 7.21392 3.3978 7.36205C3.29838 7.60793 3.26213 7.85504 3.25978 8.8277L3.22495 23.2299Z" fill="white"/>
<path fill-rule="evenodd" clip-rule="evenodd" d="M39.493 9.08336C39.4937 8.80077 39.6232 8.65979 39.8816 8.66041L48.3736 8.68095C48.5263 8.68132 48.6348 8.72426 48.6992 8.80978C48.7636 8.8953 48.7957 9.00282 48.7953 9.13234L48.7916 10.6866C48.7913 10.7925 48.7544 10.8867 48.6808 10.9689C48.6072 11.0511 48.497 11.0921 48.3501 11.0917L42.0869 11.0766L42.0804 13.7612L46.9078 13.7728C47.0253 13.7614 47.1192 13.7866 47.1895 13.8486C47.2598 13.9106 47.2948 14.0152 47.2944 14.1623L47.2906 15.7607C47.2903 15.8667 47.2607 15.9608 47.2018 16.0431C47.1429 16.1254 47.0488 16.1664 46.9196 16.166L42.0746 16.1543L42.0668 19.3688L48.5591 19.3845C48.7236 19.3849 48.8321 19.4204 48.8848 19.4912C48.9375 19.562 48.9637 19.671 48.9633 19.8182L48.9594 21.4254C48.9588 21.6726 48.8293 21.796 48.5709 21.7953L39.8499 21.7742C39.7442 21.774 39.6532 21.7443 39.577 21.6853C39.5008 21.6262 39.4629 21.5319 39.4632 21.4024L39.493 9.08336ZM57.7307 18.8768C57.8307 18.8123 57.9145 18.7727 57.982 18.7582C58.0496 18.7436 58.1069 18.7364 58.1539 18.7365C58.2537 18.7426 58.3387 18.7958 58.409 18.8961L58.6197 19.188L59.243 20.0815C59.2722 20.1227 59.2956 20.1655 59.3131 20.2097C59.3306 20.2539 59.3394 20.2936 59.3393 20.3289C59.339 20.4231 59.3065 20.507 59.2418 20.5804C59.177 20.6538 59.0916 20.7287 58.9858 20.805C58.4857 21.1688 57.9462 21.4618 57.3671 21.6841C56.7881 21.9065 56.1521 22.0168 55.4592 22.0151C54.9365 22.0138 54.4301 21.9434 53.9401 21.8039C53.45 21.6644 52.9924 21.469 52.5673 21.2177C52.1421 20.9665 51.7538 20.6653 51.4022 20.3142C51.0507 19.963 50.7478 19.5723 50.4933 19.1419C50.2389 18.7115 50.0433 18.2489 49.9065 17.754C49.7697 17.2591 49.7019 16.7438 49.7032 16.2081C49.7045 15.6724 49.7747 15.1574 49.9139 14.6632C50.0532 14.169 50.251 13.7073 50.5075 13.2782C50.764 12.849 51.0689 12.4597 51.4221 12.1103C51.7753 11.7609 52.1651 11.4616 52.5915 11.2124C53.0179 10.9632 53.4764 10.77 53.9671 10.6329C54.4578 10.4957 54.9645 10.4277 55.4872 10.429C56.1391 10.4306 56.7554 10.5322 57.3364 10.7337C57.9173 10.9353 58.4334 11.2074 58.8848 11.5499L58.876 11.5411C58.958 11.6237 59.0386 11.696 59.1177 11.758C59.1969 11.82 59.2363 11.9158 59.236 12.0453C59.2359 12.0806 59.2343 12.1218 59.2313 12.1689C59.2282 12.216 59.212 12.2601 59.1825 12.3013L58.4575 13.4034C58.3396 13.5797 58.2102 13.6677 58.0692 13.6674C57.9694 13.6671 57.8579 13.6168 57.7349 13.5164C57.436 13.2626 57.087 13.0557 56.6881 12.8957C56.2891 12.7358 55.8782 12.6553 55.4554 12.6543C54.9973 12.6532 54.5669 12.7478 54.1641 12.9382C53.7614 13.1286 53.4069 13.3867 53.1008 13.7128C52.7946 14.0388 52.5529 14.4179 52.3757 14.8502C52.1984 15.2825 52.1092 15.737 52.1081 16.2139C52.1069 16.7026 52.1939 17.162 52.369 17.5922C52.5442 18.0224 52.7826 18.3968 53.0843 18.7154C53.3859 19.0341 53.7392 19.2866 54.1439 19.473C54.5487 19.6595 54.9801 19.7532 55.4382 19.7543C55.9374 19.7555 56.3692 19.6698 56.7338 19.497C57.0983 19.3242 57.4306 19.1174 57.7307 18.8768ZM60.1332 16.2333C60.1345 15.6976 60.2047 15.1811 60.344 14.684C60.4832 14.1869 60.6796 13.7237 60.9331 13.2946C61.1867 12.8654 61.4901 12.4761 61.8433 12.1267C62.1965 11.7772 62.5878 11.4779 63.0171 11.2288C63.4464 10.9796 63.9064 10.7864 64.3971 10.6492C64.8878 10.5121 65.4004 10.4441 65.9348 10.4454C66.4634 10.4467 66.9741 10.5171 67.4671 10.6567C67.9601 10.7962 68.4191 10.9916 68.8443 11.2428C69.2695 11.4941 69.6578 11.7953 70.0094 12.1464C70.3609 12.4976 70.6624 12.8883 70.9139 13.3187C71.1653 13.7491 71.3595 14.2132 71.4963 14.711C71.6331 15.2088 71.7009 15.7256 71.6996 16.2613C71.6983 16.797 71.628 17.312 71.4888 17.8062C71.3496 18.3004 71.1532 18.7606 70.8997 19.1868C70.6461 19.613 70.3427 20.0023 69.9895 20.3547C69.6363 20.7071 69.2465 21.0079 68.8201 21.257C68.3937 21.5062 67.9337 21.6994 67.4401 21.8365C66.9464 21.9737 66.4353 22.0416 65.9068 22.0404C65.3724 22.0391 64.8601 21.9687 64.3701 21.8291C63.88 21.6896 63.421 21.4942 62.9929 21.243C62.5648 20.9917 62.175 20.689 61.8234 20.335C61.4719 19.9809 61.1704 19.5901 60.9189 19.1627C60.6674 18.7352 60.4733 18.2741 60.3365 17.7792C60.1997 17.2844 60.1319 16.7691 60.1332 16.2333ZM62.6174 16.2393C62.6162 16.7103 62.6974 17.1565 62.8608 17.5778C63.0242 17.9991 63.2524 18.3662 63.5452 18.6789C63.8381 18.9916 64.1855 19.2397 64.5873 19.4232C64.9892 19.6067 65.4279 19.699 65.9036 19.7002C66.3676 19.7013 66.798 19.6111 67.1948 19.4295C67.5917 19.248 67.9344 19.0015 68.2229 18.6902C68.5114 18.3789 68.7369 18.0129 68.8994 17.5924C69.062 17.1719 69.1438 16.7261 69.1449 16.2551C69.1461 15.79 69.0664 15.3453 68.9059 14.9211C68.7454 14.4968 68.5217 14.1239 68.2347 13.8023C67.9477 13.4808 67.6063 13.2239 67.2103 13.0316C66.8144 12.8393 66.3844 12.7426 65.9205 12.7414C65.4448 12.7403 65.0056 12.8349 64.6028 13.0253C64.2001 13.2156 63.8515 13.4709 63.5571 13.791C63.2627 14.1112 63.0327 14.483 62.8673 14.9065C62.7018 15.3299 62.6185 15.7742 62.6174 16.2393ZM84.2802 9.72151C84.3506 9.76289 84.4092 9.81307 84.456 9.87206C84.5029 9.93105 84.5262 10.0017 84.526 10.0842C84.5258 10.1489 84.508 10.2166 84.4726 10.2872L83.6146 11.7422C83.5145 11.8773 83.4086 11.9448 83.297 11.9445C83.2618 11.9444 83.2207 11.937 83.1737 11.9221C83.1268 11.9073 83.0798 11.8851 83.0329 11.8556C82.6636 11.5898 82.2677 11.3827 81.8452 11.2345C81.4227 11.0863 80.9736 11.0117 80.4979 11.0105C79.8989 11.0091 79.3495 11.1211 78.8498 11.3465C78.3501 11.572 77.9177 11.8785 77.5526 12.2662C77.1876 12.6539 76.9031 13.1095 76.6993 13.6329C76.4954 14.1564 76.3927 14.7184 76.3913 15.3189C76.3898 15.9135 76.4898 16.4716 76.6911 16.9931C76.8925 17.5146 77.1747 17.9701 77.5379 18.3595C77.9011 18.7489 78.332 19.0561 78.8306 19.281C79.3293 19.506 79.8781 19.6192 80.4771 19.6206C80.9528 19.6218 81.4067 19.5493 81.8387 19.4031C82.2707 19.257 82.669 19.0519 83.0338 18.7878C83.0809 18.7526 83.1294 18.7292 83.1793 18.7176C83.2293 18.7059 83.2719 18.6972 83.3071 18.6914C83.407 18.6916 83.5096 18.7566 83.615 18.8864L84.4835 20.3633C84.5186 20.434 84.536 20.4988 84.5359 20.5577C84.5357 20.6401 84.5106 20.7077 84.4605 20.7606C84.4105 20.8135 84.3531 20.8634 84.2884 20.9103C83.7354 21.2799 83.1401 21.5654 82.5024 21.767C81.8648 21.9686 81.1936 22.0685 80.4888 22.0668C79.8663 22.0653 79.269 21.9844 78.6967 21.824C78.1245 21.6637 77.5892 21.4357 77.0907 21.1402C76.5923 20.8446 76.1394 20.4917 75.7323 20.0816C75.3251 19.6714 74.9753 19.2173 74.6829 18.7191C74.3904 18.2209 74.1656 17.6846 74.0085 17.1102C73.8513 16.5358 73.7734 15.9366 73.775 15.3126C73.7765 14.6885 73.8572 14.0897 74.0171 13.5161C74.1771 12.9424 74.4045 12.4043 74.6994 11.9017C74.9942 11.399 75.3462 10.9421 75.7554 10.531C76.1645 10.1199 76.619 9.76922 77.1189 9.479C77.6188 9.18879 78.1552 8.96343 78.7282 8.80291C79.3012 8.6424 79.899 8.5629 80.5215 8.5644C81.2203 8.56609 81.8837 8.66631 82.5116 8.86505C83.1395 9.06379 83.729 9.34928 84.2802 9.72151ZM97.2455 21.392C97.2452 21.498 97.223 21.5848 97.1788 21.6524C97.1346 21.72 97.0772 21.7728 97.0066 21.8109C96.936 21.849 96.8552 21.8753 96.7642 21.8898C96.6731 21.9043 96.5777 21.9114 96.4778 21.9112L95.3767 21.9085C95.1888 21.9081 95.0582 21.8577 94.985 21.7574C94.9119 21.6572 94.8579 21.5305 94.823 21.3773L94.772 20.6266C94.5659 20.8321 94.3379 21.0244 94.0878 21.2033C93.8378 21.3823 93.5688 21.5377 93.2807 21.6694C92.9926 21.8012 92.687 21.9035 92.3638 21.9763C92.0406 22.0491 91.7087 22.0851 91.3681 22.0843C90.8395 22.083 90.3303 22.0126 89.8402 21.873C89.3502 21.7335 88.8911 21.5381 88.463 21.2869C88.0349 21.0356 87.6466 20.733 87.298 20.3789C86.9494 20.0248 86.6508 19.6326 86.4023 19.2022C86.1537 18.7718 85.9611 18.3092 85.8242 17.8144C85.6874 17.3195 85.6197 16.8042 85.621 16.2685C85.6223 15.7327 85.6925 15.2178 85.8317 14.7236C85.9709 14.2294 86.1658 13.7677 86.4165 13.3385C86.6671 12.9094 86.9675 12.52 87.3178 12.1706C87.6681 11.8212 88.0579 11.5218 88.4872 11.2727C88.9165 11.0235 89.3765 10.8303 89.8672 10.6932C90.358 10.556 90.8676 10.4881 91.3961 10.4893C91.772 10.4903 92.1301 10.5309 92.4706 10.6112C92.811 10.6915 93.1293 10.8041 93.4255 10.949C93.7218 11.094 93.9959 11.2683 94.2479 11.4721C94.5 11.6758 94.7285 11.8986 94.9334 12.1404L95.059 11.1958C95.0886 11.0899 95.1168 11.0032 95.1433 10.9355C95.1699 10.8679 95.2024 10.8135 95.2406 10.7724C95.2789 10.7313 95.3274 10.7034 95.3862 10.6889C95.445 10.6743 95.5184 10.6671 95.6065 10.6673L96.4874 10.6694C96.5814 10.6697 96.6753 10.6787 96.7692 10.6966C96.8631 10.7145 96.9482 10.7427 97.0245 10.7811C97.1007 10.8196 97.1608 10.8727 97.2047 10.9405C97.2486 11.0083 97.2704 11.0923 97.2701 11.1924L97.2455 21.392ZM88.0963 16.2744C88.0952 16.7454 88.1763 17.1916 88.3398 17.6129C88.5032 18.0343 88.7313 18.4042 89.0242 18.7228C89.3171 19.0415 89.6615 19.294 90.0574 19.4804C90.4534 19.6668 90.8863 19.7606 91.3561 19.7617C91.8318 19.7629 92.2769 19.6712 92.6914 19.4868C93.1058 19.3023 93.4661 19.0515 93.7723 18.7343C94.0784 18.4172 94.3201 18.0483 94.4973 17.6278C94.6745 17.2073 94.7637 16.7615 94.7648 16.2906C94.766 15.8255 94.6789 15.3822 94.5038 14.9609C94.3286 14.5395 94.0887 14.1695 93.7841 13.8509C93.4795 13.5322 93.1204 13.2782 92.7068 13.0888C92.2933 12.8994 91.8486 12.8041 91.3729 12.803C90.9031 12.8018 90.4698 12.895 90.0729 13.0824C89.676 13.2699 89.3304 13.5222 89.036 13.8394C88.7416 14.1566 88.5117 14.5255 88.3462 14.946C88.1808 15.3665 88.0975 15.8093 88.0963 16.2744ZM101.307 21.393C101.253 21.5695 101.196 21.7018 101.134 21.79C101.072 21.8781 100.953 21.922 100.777 21.9216L99.4465 21.9184C99.0765 21.9175 98.892 21.7404 98.8928 21.3872L98.9254 7.90243C98.9258 7.74936 98.9789 7.62291 99.0849 7.52308C99.1909 7.42325 99.3114 7.3735 99.4464 7.37383L100.9 7.37735C101.076 7.37777 101.214 7.42962 101.314 7.53289C101.413 7.63616 101.463 7.76138 101.462 7.90856L101.453 11.9619C101.877 11.5273 102.363 11.1811 102.913 10.9234C103.463 10.6657 104.093 10.5377 104.804 10.5394C105.596 10.5413 106.334 10.6947 107.018 10.9996C107.701 11.3044 108.296 11.7194 108.803 12.2446C109.31 12.7698 109.706 13.3845 109.992 14.0888C110.278 14.793 110.42 15.5484 110.419 16.3549C110.417 17.1556 110.271 17.9073 109.981 18.6102C109.692 19.313 109.293 19.9258 108.783 20.4485C108.274 20.9712 107.677 21.3834 106.992 21.6849C106.307 21.9865 105.568 22.1363 104.776 22.1343C104.429 22.1335 104.097 22.0944 103.78 22.0171C103.463 21.9398 103.161 21.8346 102.874 21.7015C102.586 21.5683 102.318 21.4102 102.069 21.2271C101.82 21.0439 101.593 20.8491 101.388 20.6426L101.307 21.393ZM107.943 16.3489C107.944 15.8838 107.863 15.4391 107.7 15.0149C107.536 14.5906 107.308 14.2177 107.015 13.8961C106.723 13.5745 106.377 13.3176 105.978 13.1253C105.579 12.933 105.147 12.8363 104.684 12.8352C104.214 12.834 103.772 12.9286 103.357 13.119C102.943 13.3093 102.581 13.5645 102.272 13.8846C101.963 14.2047 101.719 14.5765 101.542 15C101.365 15.4234 101.276 15.8677 101.275 16.3328L101.275 16.3946C101.279 16.8597 101.372 17.2971 101.553 17.7067C101.734 18.1163 101.977 18.476 102.282 18.7858C102.586 19.0956 102.943 19.3408 103.35 19.5214C103.758 19.7019 104.197 19.7928 104.667 19.7939C105.131 19.795 105.563 19.7048 105.962 19.5233C106.362 19.3417 106.709 19.0953 107.004 18.784C107.298 18.4727 107.528 18.1067 107.693 17.6862C107.859 17.2657 107.942 16.8199 107.943 16.3489ZM111.779 11.2716C111.779 11.1185 111.823 10.9906 111.912 10.8878C112 10.785 112.129 10.7338 112.3 10.7342L113.762 10.7377C113.827 10.7379 113.893 10.7513 113.96 10.7779C114.028 10.8046 114.088 10.843 114.14 10.8932C114.193 10.9433 114.237 11.0008 114.272 11.0657C114.307 11.1305 114.325 11.2012 114.325 11.2778L114.3 21.4244C114.299 21.7776 114.114 21.9538 113.744 21.9529L112.281 21.9494C111.929 21.9485 111.753 21.7715 111.754 21.4183L111.779 11.2716ZM111.788 7.36835C111.789 7.01512 111.963 6.83892 112.309 6.83976L113.789 6.84334C113.953 6.84373 114.086 6.88821 114.185 6.97676C114.285 7.06531 114.334 7.19789 114.334 7.37451L114.331 8.69031C114.33 8.82571 114.283 8.95365 114.189 9.07411C114.095 9.19457 113.962 9.2546 113.792 9.25418L112.312 9.25061C111.96 9.24975 111.784 9.06094 111.785 8.68415L111.788 7.36835ZM116.536 11.2654C116.536 11.183 116.571 11.0948 116.642 11.0008C116.713 10.9067 116.78 10.848 116.845 10.8246C116.892 10.7777 116.963 10.7528 117.057 10.7501C117.151 10.7474 117.239 10.7461 117.321 10.7463L118.211 10.7485C118.381 10.7489 118.507 10.8051 118.589 10.9172C118.671 11.0292 118.726 11.153 118.755 11.2885L118.85 12.2248C118.986 12.0249 119.152 11.8281 119.349 11.6343C119.546 11.4405 119.78 11.2674 120.051 11.115C120.321 10.9626 120.63 10.8397 120.977 10.7463C121.323 10.653 121.714 10.6068 122.149 10.6079C122.842 10.6095 123.458 10.7361 123.998 10.9876C124.537 11.2392 124.992 11.5832 125.361 12.0197C125.729 12.4563 126.009 12.9692 126.198 13.5583C126.388 14.1475 126.481 14.7806 126.48 15.4577L126.466 21.3479C126.465 21.5598 126.415 21.7186 126.315 21.8244C126.215 21.9301 126.071 21.9827 125.883 21.9823L124.544 21.979C124.309 21.9785 124.152 21.9339 124.073 21.8454C123.994 21.7569 123.954 21.6008 123.955 21.3771L123.969 15.4958C123.97 15.1837 123.918 14.8789 123.813 14.5814C123.708 14.2838 123.554 14.017 123.352 13.7811C123.15 13.5451 122.9 13.3561 122.6 13.2141C122.301 13.0721 121.955 13.0006 121.561 12.9996C121.291 12.999 121.011 13.0527 120.72 13.161C120.429 13.2692 120.163 13.4231 119.921 13.6226C119.68 13.8222 119.48 14.0646 119.321 14.3497C119.161 14.6349 119.078 14.957 119.072 15.3161L119.058 21.0385C119.058 21.1504 119.051 21.2622 119.039 21.3741C119.027 21.4859 119.002 21.5859 118.964 21.6741C118.925 21.7623 118.871 21.8329 118.8 21.8857C118.73 21.9385 118.639 21.9648 118.527 21.9645L117.074 21.961C116.88 21.9605 116.737 21.9145 116.647 21.8231C116.556 21.7316 116.511 21.6005 116.511 21.4298L116.536 11.2654ZM129.026 18.8284C129.149 19.023 129.304 19.1911 129.492 19.3329C129.68 19.4746 129.872 19.5914 130.068 19.6831C130.265 19.7748 130.452 19.8415 130.631 19.8832C130.81 19.9248 130.953 19.9458 131.059 19.946C131.223 19.9464 131.417 19.9292 131.64 19.8944C131.863 19.8597 132.073 19.7969 132.27 19.7061C132.467 19.6153 132.635 19.4921 132.773 19.3364C132.912 19.1807 132.981 18.9822 132.982 18.7408C132.982 18.5053 132.929 18.3139 132.82 18.1664C132.712 18.019 132.565 17.8965 132.381 17.7989C132.196 17.7013 131.985 17.6198 131.747 17.5545C131.509 17.4892 131.258 17.4179 130.994 17.3407C130.378 17.1744 129.853 16.9744 129.419 16.7408C128.985 16.5072 128.629 16.24 128.351 15.9391C128.072 15.6381 127.869 15.308 127.741 14.9485C127.612 14.5891 127.549 14.1974 127.55 13.7736C127.551 13.2967 127.646 12.8613 127.835 12.4673C128.024 12.0733 128.289 11.7354 128.63 11.4536C128.971 11.1719 129.382 10.9536 129.861 10.7987C130.34 10.6439 130.87 10.5671 131.451 10.5685C131.862 10.5695 132.229 10.6072 132.552 10.6816C132.875 10.756 133.174 10.8671 133.45 11.0149C133.725 11.1628 133.985 11.3488 134.228 11.5731C134.471 11.7974 134.719 12.06 134.971 12.3609C135.058 12.4671 135.102 12.5702 135.102 12.6703C135.102 12.7763 135.043 12.8762 134.925 12.9701C134.837 13.0405 134.732 13.1286 134.612 13.2343C134.491 13.34 134.372 13.4427 134.254 13.5425C134.136 13.6423 134.025 13.7274 133.919 13.7978C133.813 13.8682 133.725 13.9033 133.654 13.9031C133.525 13.9028 133.399 13.826 133.276 13.6726C133.147 13.5192 133.018 13.385 132.889 13.2699C132.76 13.1547 132.626 13.0602 132.485 12.9863C132.344 12.9124 132.192 12.8561 132.027 12.8174C131.863 12.7787 131.684 12.7592 131.49 12.7587C131.331 12.7583 131.165 12.7815 130.992 12.8281C130.819 12.8748 130.66 12.9451 130.516 13.0389C130.372 13.1328 130.251 13.2458 130.154 13.378C130.057 13.5103 130.008 13.6588 130.007 13.8237C130.007 14.012 130.067 14.1726 130.187 14.3054C130.307 14.4381 130.459 14.5533 130.644 14.6509C130.829 14.7485 131.03 14.8299 131.247 14.8952C131.464 14.9605 131.667 15.0198 131.854 15.0733C132.394 15.2277 132.89 15.4055 133.342 15.6067C133.794 15.808 134.182 16.0518 134.507 16.3381C134.833 16.6244 135.086 16.9606 135.267 17.3467C135.448 17.7327 135.538 18.1848 135.537 18.7029C135.535 19.2504 135.425 19.7402 135.207 20.1724C134.989 20.6046 134.687 20.9703 134.302 21.2697C133.916 21.569 133.46 21.7975 132.934 21.9552C132.408 22.1129 131.837 22.191 131.221 22.1895C130.851 22.1886 130.475 22.1479 130.093 22.0675C129.712 21.9871 129.346 21.8626 128.997 21.694C128.648 21.5253 128.326 21.3097 128.03 21.047C127.734 20.7843 127.487 20.4731 127.288 20.1135C127.2 19.9661 127.156 19.8336 127.157 19.7158C127.157 19.6393 127.176 19.5731 127.214 19.5173C127.253 19.4614 127.304 19.4071 127.369 19.3543L128.357 18.5972C128.446 18.5444 128.525 18.5181 128.595 18.5183C128.678 18.5185 128.751 18.5466 128.815 18.6027C128.88 18.6588 128.95 18.734 129.026 18.8284Z" fill="white"/>
</svg>
